<svg width="21" height="21" viewBox="0 0 21 21" fill="none" xmlns="http://www.w3.org/2000/svg">
<path d="M18.6683 15.8752C18.6683 16.1752 18.6016 16.4835 18.4599 16.7835C18.3183 17.0835 18.1349 17.3668 17.8933 17.6335C17.4849 18.0835 17.0349 18.4085 16.5266 18.6168C16.0266 18.8252 15.4849 18.9335 14.9016 18.9335C14.0516 18.9335 13.1433 18.7335 12.1849 18.3252C11.2266 17.9168 10.2683 17.3668 9.31828 16.6752C8.35994 15.9752 7.45161 15.2002 6.58494 14.3418C5.72661 13.4752 4.95161 12.5668 4.25994 11.6168C3.57661 10.6668 3.02661 9.71685 2.62661 8.77518C2.22661 7.82518 2.02661 6.91685 2.02661 6.05018C2.02661 5.48351 2.12661 4.94185 2.32661 4.44185C2.52661 3.93351 2.84328 3.46685 3.28494 3.05018C3.81828 2.52518 4.40161 2.26685 5.01828 2.26685C5.25161 2.26685 5.48494 2.31685 5.69328 2.41685C5.90994 2.51685 6.10161 2.66685 6.25161 2.88351L8.18495 5.60851C8.33495 5.81685 8.44328 6.00851 8.51828 6.19185C8.59328 6.36685 8.63495 6.54185 8.63495 6.70018C8.63495 6.90018 8.57661 7.10018 8.45995 7.29185C8.35161 7.48351 8.19328 7.68351 7.99328 7.88351L7.35994 8.54185C7.26828 8.63351 7.22661 8.74185 7.22661 8.87518C7.22661 8.94185 7.23495 9.00018 7.25161 9.06685C7.27661 9.13351 7.30161 9.18351 7.31828 9.23351C7.46828 9.50851 7.72661 9.86685 8.09328 10.3002C8.46828 10.7335 8.86828 11.1752 9.30161 11.6168C9.75161 12.0585 10.1849 12.4668 10.6266 12.8418C11.0599 13.2085 11.4183 13.4585 11.7016 13.6085C11.7433 13.6252 11.7933 13.6502 11.8516 13.6752C11.9183 13.7002 11.9849 13.7085 12.0599 13.7085C12.2016 13.7085 12.3099 13.6585 12.4016 13.5668L13.0349 12.9418C13.2433 12.7335 13.4433 12.5752 13.6349 12.4752C13.8266 12.3585 14.0183 12.3002 14.2266 12.3002C14.3849 12.3002 14.5516 12.3335 14.7349 12.4085C14.9183 12.4835 15.1099 12.5918 15.3183 12.7335L18.0766 14.6918C18.2933 14.8418 18.4433 15.0168 18.5349 15.2252C18.6183 15.4335 18.6683 15.6418 18.6683 15.8752Z" stroke="#3272D8" stroke-width="1.5" stroke-miterlimit="10"/>
</svg>
