<svg width="25" height="24" viewBox="0 0 25 24" fill="none" xmlns="http://www.w3.org/2000/svg">
<path d="M9.75 22H15.75C20.75 22 22.75 20 22.75 15V9C22.75 4 20.75 2 15.75 2H9.75C4.75 2 2.75 4 2.75 9V15C2.75 20 4.75 22 9.75 22Z" stroke="#ABB3C8" stroke-width="1.5" stroke-linecap="round" stroke-linejoin="round"/>
<path d="M2.75 13H6.51C7.27 13 7.96 13.43 8.3 14.11L9.19 15.9C9.75 17 10.75 17 10.99 17H14.52C15.28 17 15.97 16.57 16.31 15.89L17.2 14.1C17.54 13.42 18.23 12.99 18.99 12.99H22.73" stroke="#ABB3C8" stroke-width="1.5" stroke-linecap="round" stroke-linejoin="round"/>
</svg>
