<svg width="25" height="24" viewBox="0 0 25 24" fill="none" xmlns="http://www.w3.org/2000/svg">
<path d="M22.05 12.23H18.57C17.59 12.23 16.72 12.77 16.28 13.65L15.44 15.31C15.24 15.71 14.84 15.96 14.4 15.96H11.12C10.81 15.96 10.37 15.89 10.08 15.31L9.24 13.66C8.8 12.79 7.92 12.24 6.95 12.24H3.45C3.06 12.24 2.75 12.55 2.75 12.94V16.2C2.75 19.83 4.93 22 8.57 22H16.95C20.38 22 22.49 20.12 22.75 16.78V12.93C22.75 12.55 22.44 12.23 22.05 12.23Z" fill="#3272D8"/>
<path d="M22.75 7.81V10.85C22.53 10.77 22.29 10.73 22.05 10.73H18.57C17.02 10.73 15.63 11.59 14.94 12.97L14.19 14.45H11.33L10.58 12.98C9.89 11.59 8.5 10.73 6.95 10.73H3.45C3.21 10.73 2.97 10.77 2.75 10.85V7.81C2.75 4.17 4.92 2 8.56 2H16.94C20.58 2 22.75 4.17 22.75 7.81Z" fill="#3272D8"/>
</svg>
