<svg width="16" height="16" viewBox="0 0 16 16" fill="none" xmlns="http://www.w3.org/2000/svg">
<path opacity="0.4" fill-rule="evenodd" clip-rule="evenodd" d="M6.75151 3.22626C6.4889 3.29197 6.29232 3.40419 6.0943 3.60146C5.89035 3.80466 5.76706 4.02841 5.71027 4.29847C5.68921 4.39847 5.67549 4.82663 5.67549 5.38229V6.30084H10.8217H15.9679V5.38229C15.9679 4.8155 15.9544 4.40046 15.9325 4.29847C15.8176 3.76127 15.3856 3.32905 14.8514 3.21671C14.6013 3.1641 6.96388 3.17311 6.75151 3.22626ZM11.9765 4.33634C12.1149 4.40695 12.2252 4.58663 12.2252 4.74139C12.2252 4.97977 11.9946 5.20923 11.7551 5.20923C11.61 5.20923 11.4173 5.08793 11.3487 4.95341C11.2335 4.72764 11.3058 4.48115 11.5263 4.34763C11.6757 4.25724 11.8146 4.25375 11.9765 4.33634ZM13.8478 4.33634C13.9862 4.40695 14.0965 4.58663 14.0965 4.74139C14.0965 4.97977 13.866 5.20923 13.6264 5.20923C13.4813 5.20923 13.2887 5.08793 13.22 4.95341C13.1049 4.72764 13.1772 4.48115 13.3977 4.34763C13.547 4.25724 13.6859 4.25375 13.8478 4.33634Z" fill="#3272D8"/>
<path fill-rule="evenodd" clip-rule="evenodd" d="M1.07602 0.0446775C0.813411 0.110393 0.616826 0.222611 0.418806 0.419882C0.214861 0.623079 0.0915709 0.84683 0.0347755 1.1169C0.0111342 1.2293 0 1.97541 0 3.44828V5.61439H2.37037H4.74074V4.9893C4.74074 4.29815 4.77851 4.02883 4.92432 3.68008C5.15003 3.14023 5.6243 2.66528 6.16855 2.43407C6.58146 2.25867 6.72281 2.24597 8.2638 2.24597H9.66862V1.76407C9.66862 1.49902 9.65271 1.20781 9.63325 1.1169C9.51828 0.579695 9.08632 0.147477 8.55208 0.0351337C8.30247 -0.0173888 1.2882 -0.00840631 1.07602 0.0446775ZM2.55832 2.55827C2.63757 2.59869 2.70381 2.66494 2.74424 2.74419C2.80178 2.85703 2.80702 2.9272 2.80702 3.5871C2.80702 4.247 2.80178 4.31718 2.74424 4.43002C2.67325 4.56915 2.49376 4.67872 2.33687 4.67872C2.19181 4.67872 1.99913 4.55743 1.93051 4.42291C1.8773 4.31861 1.87147 4.23378 1.87265 3.58055C1.87412 2.75738 1.88666 2.70364 2.10816 2.56956C2.2575 2.47917 2.39641 2.47568 2.55832 2.55827ZM0 10.6187C0 13.5339 0.0100439 14.7342 0.0353695 14.8526C0.150052 15.3885 0.580708 15.8191 1.11654 15.9338C1.22982 15.958 1.89935 15.9692 3.24482 15.9692H5.2078L5.09939 15.7997C4.98832 15.6261 4.89622 15.4184 4.80802 15.1427C4.76354 15.0035 4.75712 14.5317 4.74869 10.7684L4.73921 6.55007H2.36962H0V10.6187ZM5.67641 10.9618C5.67641 13.6212 5.68655 14.7346 5.71178 14.8526C5.82647 15.3885 6.25712 15.8191 6.79295 15.9338C7.02484 15.9834 14.6168 15.984 14.8523 15.9344C15.3816 15.8229 15.8236 15.381 15.9342 14.8526C15.9584 14.7369 15.9688 13.5708 15.9688 10.9618V7.23623H10.8226H5.67641V10.9618ZM2.55832 7.54852C2.63757 7.58894 2.70381 7.65519 2.74424 7.73444C2.80428 7.85215 2.80702 7.91609 2.80702 9.20114C2.80702 10.4862 2.80428 10.5501 2.74424 10.6678C2.67325 10.807 2.49376 10.9165 2.33687 10.9165C2.19181 10.9165 1.99913 10.7952 1.93051 10.6607C1.87506 10.552 1.87144 10.4602 1.87265 9.19459C1.87412 7.67496 1.86994 7.70403 2.10816 7.55981C2.2575 7.46943 2.39641 7.46593 2.55832 7.54852ZM11.5556 8.26341C12.5948 8.53447 13.4093 9.35378 13.6969 10.4175C13.7562 10.6368 13.7686 10.7607 13.7686 11.1349C13.7686 11.509 13.7562 11.6329 13.6969 11.8522C13.4095 12.9152 12.6063 13.7242 11.5556 14.0088C11.1863 14.1089 10.4771 14.1087 10.1053 14.0085C9.03956 13.7212 8.23844 12.9241 7.94704 11.8611C7.85114 11.5112 7.85114 10.7586 7.94704 10.4087C8.26932 9.23292 9.21625 8.38854 10.4327 8.19217C10.6489 8.15727 11.3093 8.19916 11.5556 8.26341ZM10.386 9.15607C9.82609 9.2763 9.2728 9.7108 9.01786 10.2304C8.87142 10.5288 8.79642 10.8352 8.79642 11.1349C8.79642 11.8805 9.25131 12.6124 9.91813 12.9396C10.5187 13.2343 11.1265 13.2343 11.7271 12.9396C12.2536 12.6813 12.6833 12.1287 12.8032 11.5559C12.8986 11.0998 12.841 10.6658 12.6274 10.2304C12.4448 9.85839 12.0991 9.51262 11.7271 9.33011C11.2933 9.11724 10.8404 9.05848 10.386 9.15607Z" fill="#3272D8"/>
</svg>
