<svg width="104" height="119" viewBox="0 0 104 119" fill="none" xmlns="http://www.w3.org/2000/svg">
<path d="M92.5754 1.99976V7.831" stroke="#92C8FE" stroke-width="2.42969" stroke-linecap="round" stroke-linejoin="round"/>
<path d="M92.5754 15.6057V21.437" stroke="#92C8FE" stroke-width="2.42969" stroke-linecap="round" stroke-linejoin="round"/>
<path d="M82.8571 11.7182H88.6884" stroke="#92C8FE" stroke-width="2.42969" stroke-linecap="round" stroke-linejoin="round"/>
<path d="M96.4641 11.7182H102.295" stroke="#92C8FE" stroke-width="2.42969" stroke-linecap="round" stroke-linejoin="round"/>
<path d="M11.9093 102.103V105.991" stroke="#92C8FE" stroke-width="2.42969" stroke-linecap="round" stroke-linejoin="round"/>
<path d="M11.9093 113.765V117.653" stroke="#92C8FE" stroke-width="2.42969" stroke-linecap="round" stroke-linejoin="round"/>
<path d="M4.13501 109.879H8.02251" stroke="#92C8FE" stroke-width="2.42969" stroke-linecap="round" stroke-linejoin="round"/>
<path d="M15.7981 109.879H19.6856" stroke="#92C8FE" stroke-width="2.42969" stroke-linecap="round" stroke-linejoin="round"/>
<path fill-rule="evenodd" clip-rule="evenodd" d="M81.1178 85.7035C82.4693 84.0483 83.6842 82.3173 84.7622 80.5257C87.1333 76.5854 88.8423 72.352 89.8868 67.9874C90.9432 63.5732 91.3199 59.0248 91.0142 54.5095C90.7475 50.5695 89.9612 46.6547 88.6536 42.8764C87.3563 39.1279 85.5459 35.5136 83.2207 32.1423C81.8352 30.1333 80.2669 28.2106 78.5154 26.3971C75.9439 23.7346 73.1233 21.4583 70.1264 19.5698C66.9063 17.5406 63.4826 15.959 59.9455 14.8267C55.5157 13.4087 50.9081 12.6954 46.2998 12.6902C42.7143 12.6862 39.1283 13.1108 35.6253 13.9658C31.6817 14.9282 27.8433 16.4361 24.2293 18.4915C21.0522 20.2984 18.0486 22.5285 15.2991 25.1833C11.8439 28.5196 9.04509 32.2804 6.90526 36.3053C4.81027 40.2459 3.34692 44.4396 2.51756 48.7357C1.6631 53.1619 1.48159 57.6968 1.97562 62.1758C2.61595 67.9812 4.39113 73.6925 7.3068 78.9511C9.17245 82.316 11.5051 85.4955 14.3061 88.3957C18.7528 92.9998 23.9442 96.4488 29.5045 98.7355C36.2663 101.516 43.5734 102.578 50.7498 101.908C56.7729 101.346 62.7038 99.5634 68.1428 96.5534" fill="white"/>
<path d="M81.1178 85.7035C82.4693 84.0483 83.6842 82.3173 84.7622 80.5257C87.1333 76.5854 88.8423 72.352 89.8869 67.9874C90.9432 63.5732 91.3199 59.0248 91.0142 54.5095C90.7475 50.5695 89.9612 46.6547 88.6536 42.8764C87.3563 39.1279 85.5459 35.5136 83.2207 32.1423C81.8352 30.1333 80.2669 28.2106 78.5154 26.3971C75.9439 23.7346 73.1233 21.4583 70.1264 19.5698C66.9063 17.5406 63.4826 15.959 59.9455 14.8267C55.5157 13.4087 50.9081 12.6954 46.2998 12.6902C42.7143 12.6862 39.1283 13.1108 35.6253 13.9658C31.6817 14.9282 27.8433 16.4361 24.2293 18.4915C21.0522 20.2984 18.0486 22.5285 15.2991 25.1833C11.8439 28.5196 9.04509 32.2804 6.90526 36.3053C4.81027 40.2459 3.34692 44.4396 2.51756 48.7357C1.6631 53.1619 1.48159 57.6968 1.97562 62.1758C2.61595 67.9812 4.39113 73.6925 7.3068 78.9511C9.17245 82.316 11.5051 85.4955 14.3061 88.3957C18.7528 92.9998 23.9442 96.4488 29.5045 98.7355C36.2663 101.516 43.5734 102.578 50.7498 101.908C56.7729 101.346 62.7038 99.5634 68.1428 96.5534" stroke="#4BA2FC" stroke-width="2.42969" stroke-linecap="round" stroke-linejoin="round"/>
<path fill-rule="evenodd" clip-rule="evenodd" d="M71.3891 94.695C74.2134 92.8775 76.7245 90.6099 78.3581 88.7793L71.3891 94.695Z" fill="white"/>
<path d="M71.3891 94.695C74.2134 92.8775 76.7245 90.6099 78.3581 88.7793" stroke="#4BA2FC" stroke-width="2.42969" stroke-linecap="round"/>
<path d="M87.2296 59.94C86.9516 59.9449 86.673 59.9474 86.3939 59.9474C61.8506 59.9474 41.7544 40.8127 40.0704 16.5779C20.535 19.6593 5.59222 36.6496 5.59222 57.1473C5.59222 79.8285 23.8882 98.2153 46.4574 98.2153C68.0927 98.2153 85.8011 81.3188 87.2296 59.94Z" fill="#E3F2FE"/>
<path fill-rule="evenodd" clip-rule="evenodd" d="M30.8827 55.8157C29.6938 54.7178 27.8496 54.8021 26.7636 56.0039C25.6775 57.2058 25.7609 59.07 26.9498 60.1679L40.6717 72.8391C42.3362 74.3761 44.918 74.2581 46.4384 72.5755C46.502 72.504 46.502 72.504 46.5634 72.4306L66.1455 48.6226C67.175 47.3709 67.0059 45.5126 65.7677 44.4719C64.5295 43.4312 62.6912 43.6022 61.6617 44.8539L43.2513 67.2373L30.8827 55.8157Z" fill="white" stroke="#4BA2FC" stroke-width="2.42969" stroke-linecap="round"/>
<path fill-rule="evenodd" clip-rule="evenodd" d="M32.6348 20.8672C30.7394 21.5782 28.888 22.4422 27.0995 23.4596C24.3201 25.0405 21.6924 26.9917 19.2871 29.3145C18.3011 30.2667 17.3762 31.2583 16.5125 32.2847M13.8397 35.8574C13.1529 36.8952 12.5209 37.9591 11.9437 39.045C11.5174 39.8469 11.1209 40.6609 10.7544 41.4852" fill="white"/>
<path d="M33.0615 22.0046C33.6897 21.7689 34.0079 21.0686 33.7722 20.4404C33.5365 19.8123 32.8362 19.4941 32.208 19.7297L33.0615 22.0046ZM27.0995 23.4596L27.7001 24.5156L27.0995 23.4596ZM19.2871 29.3145L18.4432 28.4406L19.2871 29.3145ZM15.583 31.5025C15.151 32.0158 15.2169 32.7822 15.7303 33.2142C16.2436 33.6462 17.01 33.5802 17.442 33.0669L15.583 31.5025ZM14.8528 36.5278C15.2231 35.9683 15.0696 35.2146 14.5101 34.8443C13.9506 34.474 13.1969 34.6274 12.8266 35.187L14.8528 36.5278ZM11.9437 39.045L13.0164 39.6152L11.9437 39.045ZM9.64437 40.9916C9.37179 41.6047 9.64781 42.3227 10.2609 42.5952C10.8739 42.8678 11.5919 42.5918 11.8645 41.9787L9.64437 40.9916ZM32.208 19.7297C30.2532 20.4631 28.3437 21.3543 26.4988 22.4036L27.7001 24.5156C29.4324 23.5302 31.2256 22.6933 33.0615 22.0046L32.208 19.7297ZM26.4988 22.4036C23.6318 24.0344 20.9223 26.0466 18.4432 28.4406L20.131 30.1884C22.4625 27.9368 25.0084 26.0466 27.7001 24.5156L26.4988 22.4036ZM18.4432 28.4406C17.427 29.4219 16.4736 30.4442 15.583 31.5025L17.442 33.0669C18.2788 32.0725 19.1751 31.1114 20.131 30.1884L18.4432 28.4406ZM12.8266 35.187C12.1182 36.2574 11.4663 37.3547 10.871 38.4747L13.0164 39.6152C13.5754 38.5635 14.1876 37.533 14.8528 36.5278L12.8266 35.187ZM10.871 38.4747C10.4312 39.3019 10.0224 40.1415 9.64437 40.9916L11.8645 41.9787C12.2195 41.1803 12.6035 40.3919 13.0164 39.6152L10.871 38.4747Z" fill="#92C8FE"/>
</svg>
