<svg width="200" height="200" viewBox="0 0 200 200" fill="none" xmlns="http://www.w3.org/2000/svg">
<rect width="200" height="200" rx="8" fill="#3272D8"/>
<path d="M41.0169 92.6576C42.6452 93.0046 43.9532 93.8187 44.9408 95.1C45.9285 96.3546 46.4223 97.796 46.4223 99.4243C46.4223 101.773 45.5948 103.642 43.9398 105.03C42.3116 106.391 40.0293 107.072 37.093 107.072H24V78.9639H36.6526C39.5088 78.9639 41.7376 79.6179 43.3392 80.9259C44.9675 82.2339 45.7817 84.009 45.7817 86.2512C45.7817 87.9062 45.3412 89.2809 44.4604 90.3753C43.6062 91.4697 42.4584 92.2305 41.0169 92.6576ZM30.8468 90.3353H35.3313C36.4524 90.3353 37.3066 90.095 37.8938 89.6145C38.5078 89.1074 38.8147 88.3733 38.8147 87.4124C38.8147 86.4514 38.5078 85.7173 37.8938 85.2102C37.3066 84.703 36.4524 84.4494 35.3313 84.4494H30.8468V90.3353ZM35.8918 101.546C37.0396 101.546 37.9205 101.293 38.5345 100.786C39.1751 100.252 39.4954 99.491 39.4954 98.5034C39.4954 97.5157 39.1618 96.7416 38.4944 96.1811C37.8538 95.6205 36.9596 95.3402 35.8118 95.3402H30.8468V101.546H35.8918Z" fill="white"/>
<path d="M71.4544 95.5404C71.4544 96.1811 71.4144 96.8484 71.3343 97.5424H55.8389C55.9456 98.9305 56.3861 99.9982 57.1602 100.746C57.961 101.466 58.9353 101.827 60.0831 101.827C61.7915 101.827 62.9793 101.106 63.6466 99.6645H70.9339C70.5602 101.133 69.8795 102.454 68.8919 103.628C67.9309 104.803 66.7164 105.724 65.2482 106.391C63.7801 107.059 62.1385 107.392 60.3233 107.392C58.1345 107.392 56.1859 106.925 54.4775 105.991C52.7691 105.057 51.4345 103.722 50.4735 101.987C49.5126 100.252 49.0321 98.2231 49.0321 95.9008C49.0321 93.5785 49.4992 91.5498 50.4335 89.8147C51.3944 88.0797 52.7291 86.745 54.4375 85.8108C56.1458 84.8765 58.1078 84.4094 60.3233 84.4094C62.4855 84.4094 64.4074 84.8631 66.0891 85.7707C67.7707 86.6783 69.0787 87.9729 70.013 89.6546C70.9739 91.3363 71.4544 93.2982 71.4544 95.5404ZM64.4474 93.7386C64.4474 92.5641 64.047 91.6299 63.2462 90.9359C62.4454 90.2418 61.4444 89.8948 60.2433 89.8948C59.0954 89.8948 58.1211 90.2285 57.3203 90.8958C56.5462 91.5632 56.0658 92.5108 55.8789 93.7386H64.4474Z" fill="white"/>
<path d="M81.9132 88.4534C82.714 87.2255 83.715 86.2645 84.9162 85.5705C86.1174 84.8498 87.4521 84.4894 88.9202 84.4894V91.7367H87.0383C85.33 91.7367 84.0487 92.1104 83.1945 92.8578C82.3403 93.5785 81.9132 94.8598 81.9132 96.7016V107.072H75.0664V84.7297H81.9132V88.4534Z" fill="white"/>
<path d="M99.0397 88.4534C99.8405 87.2255 100.841 86.2645 102.043 85.5705C103.244 84.8498 104.579 84.4894 106.047 84.4894V91.7367H104.165C102.456 91.7367 101.175 92.1104 100.321 92.8578C99.4668 93.5785 99.0397 94.8598 99.0397 96.7016V107.072H92.1929V84.7297H99.0397V88.4534Z" fill="white"/>
<path d="M112.763 82.4074C111.562 82.4074 110.574 82.0604 109.8 81.3663C109.052 80.6456 108.679 79.7647 108.679 78.7237C108.679 77.656 109.052 76.7751 109.8 76.0811C110.574 75.3604 111.562 75 112.763 75C113.937 75 114.898 75.3604 115.646 76.0811C116.42 76.7751 116.807 77.656 116.807 78.7237C116.807 79.7647 116.42 80.6456 115.646 81.3663C114.898 82.0604 113.937 82.4074 112.763 82.4074ZM116.166 84.7297V107.072H109.319V84.7297H116.166Z" fill="white"/>
<path d="M142.189 95.5404C142.189 96.1811 142.149 96.8484 142.069 97.5424H126.573C126.68 98.9305 127.121 99.9982 127.895 100.746C128.695 101.466 129.67 101.827 130.818 101.827C132.526 101.827 133.714 101.106 134.381 99.6645H141.668C141.295 101.133 140.614 102.454 139.626 103.628C138.665 104.803 137.451 105.724 135.983 106.391C134.515 107.059 132.873 107.392 131.058 107.392C128.869 107.392 126.92 106.925 125.212 105.991C123.504 105.057 122.169 103.722 121.208 101.987C120.247 100.252 119.767 98.2231 119.767 95.9008C119.767 93.5785 120.234 91.5498 121.168 89.8147C122.129 88.0797 123.464 86.745 125.172 85.8108C126.88 84.8765 128.842 84.4094 131.058 84.4094C133.22 84.4094 135.142 84.8631 136.824 85.7707C138.505 86.6783 139.813 87.9729 140.747 89.6546C141.708 91.3363 142.189 93.2982 142.189 95.5404ZM135.182 93.7386C135.182 92.5641 134.781 91.6299 133.981 90.9359C133.18 90.2418 132.179 89.8948 130.978 89.8948C129.83 89.8948 128.856 90.2285 128.055 90.8958C127.281 91.5632 126.8 92.5108 126.613 93.7386H135.182Z" fill="white"/>
<path d="M154.89 107.392C152.941 107.392 151.206 107.059 149.685 106.391C148.163 105.724 146.962 104.816 146.081 103.669C145.2 102.494 144.706 101.186 144.6 99.7446H151.366C151.446 100.519 151.807 101.146 152.447 101.626C153.088 102.107 153.876 102.347 154.81 102.347C155.664 102.347 156.318 102.187 156.772 101.867C157.252 101.52 157.493 101.079 157.493 100.545C157.493 99.9048 157.159 99.4377 156.492 99.144C155.824 98.8237 154.743 98.4767 153.248 98.103C151.647 97.7293 150.312 97.3422 149.244 96.9418C148.177 96.5147 147.256 95.8608 146.482 94.9799C145.707 94.0723 145.32 92.8578 145.32 91.3363C145.32 90.055 145.667 88.8938 146.361 87.8528C147.082 86.7851 148.123 85.9442 149.485 85.3303C150.873 84.7163 152.514 84.4094 154.409 84.4094C157.212 84.4094 159.414 85.1034 161.016 86.4914C162.644 87.8795 163.579 89.7213 163.819 92.0169H157.493C157.386 91.2428 157.039 90.6289 156.451 90.1751C155.891 89.7213 155.144 89.4944 154.209 89.4944C153.408 89.4944 152.795 89.6546 152.367 89.9749C151.94 90.2685 151.727 90.6823 151.727 91.2161C151.727 91.8568 152.06 92.3373 152.728 92.6576C153.422 92.9779 154.49 93.2982 155.931 93.6185C157.586 94.0456 158.934 94.4727 159.975 94.8998C161.016 95.3002 161.924 95.9675 162.698 96.9018C163.498 97.8094 163.912 99.0373 163.939 100.585C163.939 101.893 163.565 103.068 162.818 104.109C162.097 105.123 161.043 105.924 159.655 106.511C158.293 107.099 156.705 107.392 154.89 107.392Z" fill="white"/>
<path d="M176.725 102.144C176.725 104.945 174.454 107.215 171.653 107.215C168.852 107.215 166.581 104.945 166.581 102.144C166.581 99.3426 168.852 97.0719 171.653 97.0719C174.454 97.0719 176.725 99.3426 176.725 102.144Z" fill="#DF7339"/>
<path d="M33.0422 117.212C33.0422 117.899 32.8844 118.53 32.569 119.105C32.2535 119.668 31.769 120.124 31.1154 120.474C30.4619 120.823 29.6507 120.998 28.6817 120.998H26.8901V125.257H24V113.392H28.6817C29.6281 113.392 30.4281 113.555 31.0816 113.882C31.7352 114.209 32.2253 114.66 32.5521 115.234C32.8788 115.809 33.0422 116.468 33.0422 117.212ZM28.4619 118.699C29.014 118.699 29.4253 118.57 29.6957 118.31C29.9662 118.051 30.1014 117.685 30.1014 117.212C30.1014 116.739 29.9662 116.372 29.6957 116.113C29.4253 115.854 29.014 115.724 28.4619 115.724H26.8901V118.699H28.4619Z" fill="white"/>
<path d="M37.4369 117.398C37.7749 116.879 38.1975 116.474 38.7045 116.181C39.2116 115.877 39.7749 115.724 40.3946 115.724V118.784H39.6003C38.8792 118.784 38.3383 118.941 37.9778 119.257C37.6172 119.561 37.4369 120.102 37.4369 120.879V125.257H34.5468V115.826H37.4369V117.398Z" fill="white"/>
<path d="M46.069 125.392C45.1451 125.392 44.3113 125.195 43.5676 124.801C42.8352 124.406 42.2549 123.843 41.8268 123.11C41.4099 122.378 41.2014 121.522 41.2014 120.541C41.2014 119.572 41.4155 118.722 41.8437 117.989C42.2718 117.246 42.8577 116.677 43.6014 116.282C44.3451 115.888 45.1789 115.691 46.1028 115.691C47.0267 115.691 47.8605 115.888 48.6042 116.282C49.3478 116.677 49.9338 117.246 50.3619 117.989C50.7901 118.722 51.0042 119.572 51.0042 120.541C51.0042 121.51 50.7844 122.367 50.345 123.11C49.9168 123.843 49.3253 124.406 48.5704 124.801C47.8267 125.195 46.9929 125.392 46.069 125.392ZM46.069 122.891C46.6211 122.891 47.0887 122.688 47.4718 122.282C47.8662 121.877 48.0633 121.296 48.0633 120.541C48.0633 119.786 47.8718 119.206 47.4887 118.801C47.1169 118.395 46.6549 118.192 46.1028 118.192C45.5394 118.192 45.0718 118.395 44.7 118.801C44.3282 119.195 44.1422 119.775 44.1422 120.541C44.1422 121.296 44.3225 121.877 44.6831 122.282C45.0549 122.688 45.5169 122.891 46.069 122.891Z" fill="white"/>
</svg>
