<svg width="21" height="21" viewBox="0 0 21 21" fill="none" xmlns="http://www.w3.org/2000/svg">
<path d="M7.44328 16.4335H7.02661C3.69328 16.4335 2.02661 15.6002 2.02661 11.4335V7.26685C2.02661 3.93351 3.69328 2.26685 7.02661 2.26685H13.6933C17.0266 2.26685 18.6933 3.93351 18.6933 7.26685V11.4335C18.6933 14.7668 17.0266 16.4335 13.6933 16.4335H13.2766C13.0183 16.4335 12.7683 16.5585 12.6099 16.7668L11.3599 18.4335C10.8099 19.1668 9.90995 19.1668 9.35995 18.4335L8.10995 16.7668C7.97661 16.5835 7.66828 16.4335 7.44328 16.4335Z" stroke="#DF7339" stroke-width="1.5" stroke-miterlimit="10" stroke-linecap="round" stroke-linejoin="round"/>
<path d="M13.6904 9.76676H13.6979" stroke="#DF7339" stroke-width="2" stroke-linecap="round" stroke-linejoin="round"/>
<path d="M10.3562 9.76676H10.3637" stroke="#DF7339" stroke-width="2" stroke-linecap="round" stroke-linejoin="round"/>
<path d="M7.02207 9.76676H7.02956" stroke="#DF7339" stroke-width="2" stroke-linecap="round" stroke-linejoin="round"/>
</svg>
