<svg width="18" height="17" viewBox="0 0 18 17" fill="none" xmlns="http://www.w3.org/2000/svg">
<path d="M2.65855 10.4274L2.65857 10.4274L2.66151 10.4224C2.81167 10.1659 2.94077 9.82039 3.03207 9.48877C3.12325 9.15756 3.19 8.79203 3.19 8.4898V6.6298C3.19 3.27743 5.91481 0.559422 9.27069 0.549805C12.6137 0.550177 15.34 3.27568 15.34 6.6298V8.4998C15.34 8.80224 15.4068 9.1681 15.4997 9.50058C15.5923 9.83227 15.7246 10.1797 15.8822 10.4387C15.8825 10.4392 15.8828 10.4396 15.8831 10.4401L17.0102 12.3152C17.0104 12.3155 17.0105 12.3159 17.0107 12.3162C17.3443 12.8783 17.4072 13.5393 17.1821 14.1436C16.9545 14.7445 16.4769 15.2141 15.8509 15.4258C14.7947 15.7778 13.7114 16.0508 12.6207 16.2261L12.6206 16.226L12.6106 16.2279C12.4967 16.2486 12.4087 16.2642 12.3247 16.2719L12.3062 16.2735L12.2878 16.2766C12.1235 16.304 11.957 16.3226 11.7748 16.3429L11.7748 16.3427L11.7624 16.3444C11.5567 16.3725 11.3391 16.3915 11.1067 16.4117L11.1067 16.4117L11.1018 16.4121C10.4982 16.4706 9.88423 16.4998 9.27 16.4998C8.64553 16.4998 8.02135 16.4705 7.4074 16.4121L7.40741 16.4119L7.39694 16.4112C7.14035 16.3922 6.89339 16.3637 6.64603 16.3256L6.64605 16.3255L6.63608 16.3242C6.48878 16.3046 6.34426 16.2853 6.20949 16.2661C6.14702 16.255 6.0865 16.2467 6.03665 16.2399L6.03256 16.2394C5.97578 16.2316 5.93174 16.2256 5.88945 16.2179L5.88945 16.2178L5.88436 16.217C4.79561 16.0306 3.73066 15.7763 2.67812 15.4254L2.67454 15.4243C2.01184 15.2089 1.52296 14.735 1.30896 14.1564L1.30817 14.1542C1.09856 13.5953 1.16634 12.9234 1.52974 12.3054L2.65855 10.4274ZM9.24 9.2598C9.93614 9.2598 10.5 8.69595 10.5 7.9998V4.89981C10.5 4.20366 9.93614 3.6398 9.24 3.6398C8.54386 3.6398 7.98 4.20366 7.98 4.89981V7.9998C7.98 8.69595 8.54386 9.2598 9.24 9.2598Z" fill="#3272D8" stroke="#3272D8"/>
</svg>
