<svg width="25" height="24" viewBox="0 0 25 24" fill="none" xmlns="http://www.w3.org/2000/svg">
<path d="M12.25 6.44V9.77" stroke="#ABB3C8" stroke-width="1.5" stroke-miterlimit="10" stroke-linecap="round"/>
<path d="M12.27 2C8.59 2 5.61 4.98 5.61 8.66V10.76C5.61 11.44 5.33 12.46 4.98 13.04L3.71 15.16C2.93 16.47 3.47 17.93 4.91 18.41C9.69 20 14.86 20 19.64 18.41C20.99 17.96 21.57 16.38 20.84 15.16L19.57 13.04C19.22 12.46 18.94 11.43 18.94 10.76V8.66C18.93 5 15.93 2 12.27 2Z" stroke="#ABB3C8" stroke-width="1.5" stroke-miterlimit="10" stroke-linecap="round"/>
<path d="M15.58 18.82C15.58 20.65 14.08 22.15 12.25 22.15C11.34 22.15 10.5 21.77 9.9 21.17C9.3 20.57 8.92 19.73 8.92 18.82" stroke="#ABB3C8" stroke-width="1.5" stroke-miterlimit="10"/>
</svg>
