<svg width="16" height="16" viewBox="0 0 16 16" fill="none" xmlns="http://www.w3.org/2000/svg">
<path fill-rule="evenodd" clip-rule="evenodd" d="M0.755085 0.0472479C0.556478 0.108967 0.290401 0.356248 0.194752 0.567998C0.12378 0.725092 0.120346 0.763717 0.120346 1.40456C0.120346 2.0454 0.12378 2.08403 0.194752 2.24112C0.296367 2.46606 0.556825 2.70144 0.773987 2.76459C0.916211 2.80597 1.22168 2.81134 2.99737 2.80387L5.05585 2.79519L5.21588 2.71072C5.41524 2.60553 5.61363 2.38384 5.67826 2.19412C5.74926 1.98565 5.74926 0.823467 5.67826 0.614998C5.61363 0.425279 5.41524 0.203592 5.21588 0.0984041L5.05585 0.0139354L2.97856 0.00787288C1.23649 0.00277913 0.877692 0.00912288 0.755085 0.0472479ZM13.7186 0.265342C13.5198 0.328029 13.2536 0.575748 13.1583 0.786748L13.0839 0.951435V3.02956V5.10769L13.1583 5.27237C13.2042 5.37412 13.2976 5.49647 13.4026 5.5925C13.6572 5.82525 13.7689 5.84881 14.56 5.8365C15.1946 5.82665 15.2113 5.82469 15.368 5.74197C15.4561 5.69553 15.585 5.59278 15.6546 5.51369C15.8868 5.24987 15.8796 5.32884 15.8796 3.02956C15.8796 0.730279 15.8868 0.809248 15.6546 0.545435C15.585 0.466342 15.4561 0.363592 15.368 0.317154C15.2099 0.233717 15.1998 0.232592 14.5364 0.225967C14.0163 0.220748 13.8318 0.229623 13.7186 0.265342ZM11.2252 0.707529C9.40956 0.90206 7.89067 2.234 7.45962 4.00972C7.33914 4.50612 7.31665 5.02781 7.32683 7.09206L7.33618 8.98268L9.67117 8.99068L12.0062 8.99872V7.186V5.37331H12.0994H12.1926L12.1697 5.178C12.1398 4.92347 12.1398 1.13565 12.1697 0.881123L12.1926 0.68581L11.7636 0.69081C11.5276 0.69356 11.2854 0.701092 11.2252 0.707529ZM1.36556 7.91997C1.29446 7.94584 1.09064 8.02981 0.912621 8.10653L0.588905 8.24606L0.579659 9.3175C0.566789 10.8088 0.626984 11.3513 0.890846 12.1208C1.38608 13.5652 2.45006 14.7688 3.80635 15.4191C4.24089 15.6274 4.43684 15.6994 4.88216 15.8143C6.45875 16.2212 8.11927 15.9331 9.49156 15.0146C11.054 13.9688 12.0062 12.201 12.0062 10.3459V9.93581H9.6662H7.32625L7.3146 10.2561C7.30104 10.629 7.23896 10.7909 7.02839 11.0027C6.82594 11.2064 6.60648 11.2951 6.30535 11.2951C5.87971 11.2951 5.56202 11.0994 5.37669 10.723L5.27451 10.5155L5.25889 9.37643L5.24328 8.2374L4.84509 8.06953C4.26789 7.82615 4.22509 7.82512 3.76021 8.04356C3.25745 8.27981 3.00102 8.334 2.68802 8.27015C2.55492 8.243 2.31771 8.15497 2.11835 8.05878C1.73982 7.87612 1.57132 7.84506 1.36556 7.91997Z" fill="#3272D8"/>
<path opacity="0.4" fill-rule="evenodd" clip-rule="evenodd" d="M0.573387 5.44809C0.573387 6.42102 0.580851 7.21705 0.590004 7.21705C0.599157 7.21705 0.658883 7.19455 0.722763 7.16705C1.03657 7.03193 1.29391 6.96246 1.54174 6.94593C1.77418 6.93046 1.8375 6.93846 2.0501 7.01018C2.18367 7.05524 2.40852 7.15024 2.54977 7.2213C2.69353 7.29362 2.85484 7.35174 2.91622 7.35334C2.98925 7.35527 3.15109 7.29681 3.40056 7.17843C3.60663 7.08065 3.83847 6.9864 3.91578 6.96899C4.23375 6.8974 4.65289 6.95893 5.05201 7.13574C5.15294 7.18046 5.24082 7.21705 5.24725 7.21705C5.25372 7.21705 5.25899 6.42443 5.25899 5.45571V3.69434L5.10383 3.72255C4.90891 3.75799 0.702459 3.74234 0.628052 3.7059C0.576323 3.68055 0.573387 3.77399 0.573387 5.44809Z" fill="#3272D8"/>
</svg>
