<svg width="25" height="24" viewBox="0 0 25 24" fill="none" xmlns="http://www.w3.org/2000/svg">
<path d="M3.24 11C3.24 6.30613 7.05614 2.48999 11.75 2.48999C16.4439 2.48999 20.26 6.30613 20.26 11C20.26 15.6938 16.4439 19.51 11.75 19.51C7.05614 19.51 3.24 15.6938 3.24 11ZM8.75 13.75H11.75C12.4361 13.75 13 13.1861 13 12.5C13 11.8138 12.4361 11.25 11.75 11.25H8.75C8.06386 11.25 7.5 11.8138 7.5 12.5C7.5 13.1861 8.06386 13.75 8.75 13.75ZM8.75 10.75H14.75C15.4361 10.75 16 10.1861 16 9.49999C16 8.81385 15.4361 8.24999 14.75 8.24999H8.75C8.06386 8.24999 7.5 8.81385 7.5 9.49999C7.5 10.1861 8.06386 10.75 8.75 10.75Z" fill="#3272D8" stroke="#3272D8"/>
<path d="M20.5423 21.7768L20.5314 21.775L20.5206 21.7737C20.3954 21.7584 20.1989 21.7047 19.9907 21.533C19.7829 21.3617 19.5356 21.0497 19.3449 20.4735C19.1667 19.9303 19.2438 19.4321 19.4958 19.0822C19.748 18.7319 20.1956 18.5 20.7701 18.5C21.5972 18.5 22.0852 18.7932 22.2988 19.1851C22.5041 19.5794 22.4793 20.1466 22.0182 20.8165L22.0181 20.8165L22.014 20.8226C21.4396 21.6842 20.9104 21.78 20.6501 21.78C20.5718 21.78 20.5542 21.7788 20.5423 21.7768Z" fill="#3272D8" stroke="#3272D8"/>
</svg>
