<svg width="152" height="67" viewBox="0 0 152 67" fill="none" xmlns="http://www.w3.org/2000/svg">
<path d="M12.7115 42.2803C10.6561 42.2803 8.81429 41.9466 7.18601 41.2793C5.55772 40.612 4.24975 39.6243 3.2621 38.3163C2.30115 37.0084 1.79397 35.4335 1.74059 33.5916H9.02784C9.13461 34.6327 9.49497 35.4335 10.1089 35.994C10.7229 36.5279 11.5237 36.7948 12.5113 36.7948C13.5256 36.7948 14.3264 36.5679 14.9137 36.1141C15.5009 35.6337 15.7946 34.9797 15.7946 34.1522C15.7946 33.4582 15.5543 32.8843 15.0739 32.4305C14.6201 31.9767 14.0462 31.603 13.3521 31.3094C12.6848 31.0157 11.7239 30.6821 10.4693 30.3084C8.65413 29.7478 7.17266 29.1873 6.02485 28.6267C4.87704 28.0661 3.88939 27.2386 3.0619 26.1442C2.23441 25.0498 1.82067 23.6217 1.82067 21.86C1.82067 19.244 2.76828 17.202 4.6635 15.7339C6.55872 14.239 9.02784 13.4916 12.0709 13.4916C15.1673 13.4916 17.6631 14.239 19.5583 15.7339C21.4535 17.202 22.4679 19.2574 22.6013 21.9H15.194C15.1406 20.9924 14.8069 20.2851 14.193 19.7779C13.579 19.244 12.7916 18.9771 11.8306 18.9771C11.0031 18.9771 10.3358 19.204 9.82864 19.6578C9.32146 20.0849 9.06788 20.7121 9.06788 21.5396C9.06788 22.4472 9.49497 23.1546 10.3492 23.6618C11.2033 24.1689 12.538 24.7161 14.3531 25.3034C16.1683 25.9173 17.6364 26.5046 18.7575 27.0651C19.9053 27.6257 20.893 28.4398 21.7205 29.5076C22.548 30.5753 22.9617 31.95 22.9617 33.6317C22.9617 35.2333 22.548 36.688 21.7205 37.996C20.9197 39.304 19.7452 40.345 18.197 41.1191C16.6488 41.8932 14.8203 42.2803 12.7115 42.2803ZM34.0221 22.8209C34.6894 21.7799 35.6103 20.939 36.7848 20.2984C37.9593 19.6578 39.334 19.3374 40.9089 19.3374C42.7508 19.3374 44.4191 19.8046 45.9139 20.7388C47.4087 21.6731 48.5832 23.0078 49.4374 24.7428C50.3183 26.4779 50.7587 28.4932 50.7587 30.7888C50.7587 33.0845 50.3183 35.1131 49.4374 36.8749C48.5832 38.61 47.4087 39.958 45.9139 40.9189C44.4191 41.8532 42.7508 42.3203 40.9089 42.3203C39.3607 42.3203 37.986 42 36.7848 41.3594C35.6103 40.7187 34.6894 39.8912 34.0221 38.8769V52.6506H27.1753V19.6578H34.0221V22.8209ZM43.7918 30.7888C43.7918 29.0805 43.3113 27.7458 42.3504 26.7849C41.4161 25.7972 40.255 25.3034 38.8669 25.3034C37.5055 25.3034 36.3444 25.7972 35.3834 26.7849C34.4492 27.7725 33.982 29.1205 33.982 30.8289C33.982 32.5373 34.4492 33.8853 35.3834 34.8729C36.3444 35.8606 37.5055 36.3544 38.8669 36.3544C40.2283 36.3544 41.3894 35.8606 42.3504 34.8729C43.3113 33.8586 43.7918 32.4972 43.7918 30.7888ZM52.9894 30.7888C52.9894 28.4932 53.4165 26.4779 54.2707 24.7428C55.1515 23.0078 56.3394 21.6731 57.8342 20.7388C59.329 19.8046 60.9974 19.3374 62.8392 19.3374C64.4141 19.3374 65.7888 19.6578 66.9633 20.2984C68.1645 20.939 69.0854 21.7799 69.726 22.8209V19.6578H76.5729V42H69.726V38.8369C69.0587 39.8779 68.1245 40.7187 66.9233 41.3594C65.7488 42 64.3741 42.3203 62.7992 42.3203C60.984 42.3203 59.329 41.8532 57.8342 40.9189C56.3394 39.958 55.1515 38.61 54.2707 36.8749C53.4165 35.1131 52.9894 33.0845 52.9894 30.7888ZM69.726 30.8289C69.726 29.1205 69.2456 27.7725 68.2846 26.7849C67.3504 25.7972 66.2025 25.3034 64.8412 25.3034C63.4798 25.3034 62.3187 25.7972 61.3577 26.7849C60.4235 27.7458 59.9563 29.0805 59.9563 30.7888C59.9563 32.4972 60.4235 33.8586 61.3577 34.8729C62.3187 35.8606 63.4798 36.3544 64.8412 36.3544C66.2025 36.3544 67.3504 35.8606 68.2846 34.8729C69.2456 33.8853 69.726 32.5373 69.726 30.8289ZM88.373 23.3815C89.1738 22.1536 90.1748 21.1926 91.376 20.4986C92.5772 19.7779 93.9119 19.4175 95.38 19.4175V26.6647H93.4981C91.7898 26.6647 90.5085 27.0384 89.6543 27.7859C88.8001 28.5066 88.373 29.7878 88.373 31.6297V42H81.5262V19.6578H88.373V23.3815ZM112.306 42L105.499 32.6307V42H98.6526V12.3705H105.499V28.7468L112.266 19.6578H120.715L111.425 30.8689L120.795 42H112.306ZM146.227 19.6578L132.213 52.6106H124.845L129.97 41.2392L120.881 19.6578H128.529L133.694 33.6317L138.819 19.6578H146.227Z" fill="#3272D8"/>
<circle cx="146.279" cy="46.9799" r="5.07171" fill="#DF7339"/>
</svg>
